<?xml version="1.0" encoding="UTF-8"?>
<svg xmlns="http://www.w3.org/2000/svg" xmlns:xlink="http://www.w3.org/1999/xlink" width="980.176208pt" height="58.074253pt" viewBox="0 0 980.176208 58.074253" version="1.1">
<defs>
<clipPath id="clip1">
  <path d="M 10 6 L 82 6 L 82 58.074219 L 10 58.074219 Z M 10 6 "/>
</clipPath>
<clipPath id="clip2">
  <path d="M 76 6 L 148 6 L 148 58.074219 L 76 58.074219 Z M 76 6 "/>
</clipPath>
<clipPath id="clip3">
  <path d="M 554 6 L 626 6 L 626 58.074219 L 554 58.074219 Z M 554 6 "/>
</clipPath>
<clipPath id="clip4">
  <path d="M 620 6 L 692 6 L 692 58.074219 L 620 58.074219 Z M 620 6 "/>
</clipPath>
<clipPath id="clip5">
  <path d="M 834 6 L 906 6 L 906 58.074219 L 834 58.074219 Z M 834 6 "/>
</clipPath>
<clipPath id="clip6">
  <path d="M 822 0 L 980.175781 0 L 980.175781 47 L 822 47 Z M 822 0 "/>
</clipPath>
<clipPath id="clip7">
  <path d="M 900 6 L 972 6 L 972 58.074219 L 900 58.074219 Z M 900 6 "/>
</clipPath>
<clipPath id="clip8">
  <path d="M 191 4 L 263 4 L 263 58.074219 L 191 58.074219 Z M 191 4 "/>
</clipPath>
<clipPath id="clip9">
  <path d="M 257 4 L 329 4 L 329 58.074219 L 257 58.074219 Z M 257 4 "/>
</clipPath>
<clipPath id="clip10">
  <path d="M 373 4 L 445 4 L 445 58.074219 L 373 58.074219 Z M 373 4 "/>
</clipPath>
<clipPath id="clip11">
  <path d="M 439 4 L 511 4 L 511 58.074219 L 439 58.074219 Z M 439 4 "/>
</clipPath>
</defs>
<g id="surface1">
<path style=" stroke:none;fill-rule:evenodd;fill:rgb(100%,100%,100%);fill-opacity:1;" d="M 60.3125 41.949219 C 60.3125 49.820312 53.933594 56.199219 46.0625 56.199219 C 38.195312 56.199219 31.8125 49.820312 31.8125 41.949219 C 31.8125 34.078125 38.195312 27.699219 46.0625 27.699219 C 53.933594 27.699219 60.3125 34.078125 60.3125 41.949219 Z M 60.3125 41.949219 "/>
<g clip-path="url(#clip1)" clip-rule="nonzero">
<path style="fill:none;stroke-width:3.75;stroke-linecap:butt;stroke-linejoin:miter;stroke:rgb(0%,0%,0%);stroke-opacity:1;stroke-miterlimit:4;" d="M 60.3125 41.949219 C 60.3125 49.820312 53.933594 56.199219 46.0625 56.199219 C 38.195312 56.199219 31.8125 49.820312 31.8125 41.949219 C 31.8125 34.078125 38.195312 27.699219 46.0625 27.699219 C 53.933594 27.699219 60.3125 34.078125 60.3125 41.949219 Z M 60.3125 41.949219 "/>
</g>
<path style="fill:none;stroke-width:3.75;stroke-linecap:butt;stroke-linejoin:round;stroke:rgb(0%,0%,0%);stroke-opacity:1;stroke-miterlimit:4;" d="M 126.3125 41.949219 L 156.140625 42 M 0.015625 41.949219 L 32.320312 41.664062 M 49.28125 1.578125 L 115.8125 44.199219 "/>
<path style=" stroke:none;fill-rule:evenodd;fill:rgb(100%,100%,100%);fill-opacity:1;" d="M 126.3125 41.949219 C 126.3125 49.820312 119.933594 56.199219 112.0625 56.199219 C 104.195312 56.199219 97.8125 49.820312 97.8125 41.949219 C 97.8125 34.078125 104.195312 27.699219 112.0625 27.699219 C 119.933594 27.699219 126.3125 34.078125 126.3125 41.949219 Z M 126.3125 41.949219 "/>
<g clip-path="url(#clip2)" clip-rule="nonzero">
<path style="fill:none;stroke-width:3.75;stroke-linecap:butt;stroke-linejoin:miter;stroke:rgb(0%,0%,0%);stroke-opacity:1;stroke-miterlimit:4;" d="M 126.3125 41.949219 C 126.3125 49.820312 119.933594 56.199219 112.0625 56.199219 C 104.195312 56.199219 97.8125 49.820312 97.8125 41.949219 C 97.8125 34.078125 104.195312 27.699219 112.0625 27.699219 C 119.933594 27.699219 126.3125 34.078125 126.3125 41.949219 Z M 126.3125 41.949219 "/>
</g>
<path style=" stroke:none;fill-rule:evenodd;fill:rgb(100%,100%,100%);fill-opacity:1;" d="M 604.273438 41.949219 C 604.273438 49.820312 597.894531 56.199219 590.023438 56.199219 C 582.152344 56.199219 575.773438 49.820312 575.773438 41.949219 C 575.773438 34.078125 582.152344 27.699219 590.023438 27.699219 C 597.894531 27.699219 604.273438 34.078125 604.273438 41.949219 Z M 604.273438 41.949219 "/>
<g clip-path="url(#clip3)" clip-rule="nonzero">
<path style="fill:none;stroke-width:3.75;stroke-linecap:butt;stroke-linejoin:miter;stroke:rgb(0%,0%,0%);stroke-opacity:1;stroke-miterlimit:4;" d="M 604.273438 41.949219 C 604.273438 49.820312 597.894531 56.199219 590.023438 56.199219 C 582.152344 56.199219 575.773438 49.820312 575.773438 41.949219 C 575.773438 34.078125 582.152344 27.699219 590.023438 27.699219 C 597.894531 27.699219 604.273438 34.078125 604.273438 41.949219 Z M 604.273438 41.949219 "/>
</g>
<path style="fill:none;stroke-width:3.75;stroke-linecap:butt;stroke-linejoin:round;stroke:rgb(0%,0%,0%);stroke-opacity:1;stroke-miterlimit:4;" d="M 670.273438 41.949219 L 700.101562 42 M 543.976562 41.949219 L 576.28125 41.664062 M 593.242188 1.578125 L 659.773438 44.199219 "/>
<path style=" stroke:none;fill-rule:evenodd;fill:rgb(100%,100%,100%);fill-opacity:1;" d="M 670.273438 41.949219 C 670.273438 49.820312 663.894531 56.199219 656.023438 56.199219 C 648.152344 56.199219 641.773438 49.820312 641.773438 41.949219 C 641.773438 34.078125 648.152344 27.699219 656.023438 27.699219 C 663.894531 27.699219 670.273438 34.078125 670.273438 41.949219 Z M 670.273438 41.949219 "/>
<g clip-path="url(#clip4)" clip-rule="nonzero">
<path style="fill:none;stroke-width:3.75;stroke-linecap:butt;stroke-linejoin:miter;stroke:rgb(0%,0%,0%);stroke-opacity:1;stroke-miterlimit:4;" d="M 670.273438 41.949219 C 670.273438 49.820312 663.894531 56.199219 656.023438 56.199219 C 648.152344 56.199219 641.773438 49.820312 641.773438 41.949219 C 641.773438 34.078125 648.152344 27.699219 656.023438 27.699219 C 663.894531 27.699219 670.273438 34.078125 670.273438 41.949219 Z M 670.273438 41.949219 "/>
</g>
<path style=" stroke:none;fill-rule:evenodd;fill:rgb(100%,100%,100%);fill-opacity:1;" d="M 884.34375 41.949219 C 884.34375 49.820312 877.964844 56.199219 870.09375 56.199219 C 862.226562 56.199219 855.84375 49.820312 855.84375 41.949219 C 855.84375 34.078125 862.226562 27.699219 870.09375 27.699219 C 877.964844 27.699219 884.34375 34.078125 884.34375 41.949219 Z M 884.34375 41.949219 "/>
<g clip-path="url(#clip5)" clip-rule="nonzero">
<path style="fill:none;stroke-width:3.75;stroke-linecap:butt;stroke-linejoin:miter;stroke:rgb(0%,0%,0%);stroke-opacity:1;stroke-miterlimit:4;" d="M 884.34375 41.949219 C 884.34375 49.820312 877.964844 56.199219 870.09375 56.199219 C 862.226562 56.199219 855.84375 49.820312 855.84375 41.949219 C 855.84375 34.078125 862.226562 27.699219 870.09375 27.699219 C 877.964844 27.699219 884.34375 34.078125 884.34375 41.949219 Z M 884.34375 41.949219 "/>
</g>
<g clip-path="url(#clip6)" clip-rule="nonzero">
<path style="fill:none;stroke-width:3.75;stroke-linecap:butt;stroke-linejoin:round;stroke:rgb(0%,0%,0%);stroke-opacity:1;stroke-miterlimit:4;" d="M 950.34375 41.949219 L 980.171875 42 M 824.046875 41.949219 L 856.351562 41.664062 M 873.3125 1.578125 L 939.84375 44.199219 "/>
</g>
<path style=" stroke:none;fill-rule:evenodd;fill:rgb(100%,100%,100%);fill-opacity:1;" d="M 950.34375 41.949219 C 950.34375 49.820312 943.964844 56.199219 936.09375 56.199219 C 928.226562 56.199219 921.84375 49.820312 921.84375 41.949219 C 921.84375 34.078125 928.226562 27.699219 936.09375 27.699219 C 943.964844 27.699219 950.34375 34.078125 950.34375 41.949219 Z M 950.34375 41.949219 "/>
<g clip-path="url(#clip7)" clip-rule="nonzero">
<path style="fill:none;stroke-width:3.75;stroke-linecap:butt;stroke-linejoin:miter;stroke:rgb(0%,0%,0%);stroke-opacity:1;stroke-miterlimit:4;" d="M 950.34375 41.949219 C 950.34375 49.820312 943.964844 56.199219 936.09375 56.199219 C 928.226562 56.199219 921.84375 49.820312 921.84375 41.949219 C 921.84375 34.078125 928.226562 27.699219 936.09375 27.699219 C 943.964844 27.699219 950.34375 34.078125 950.34375 41.949219 Z M 950.34375 41.949219 "/>
</g>
<path style=" stroke:none;fill-rule:evenodd;fill:rgb(100%,100%,100%);fill-opacity:1;" d="M 241.632812 40.039062 C 241.632812 43.816406 240.132812 47.445312 237.460938 50.117188 C 234.789062 52.789062 231.164062 54.292969 227.382812 54.292969 C 223.605469 54.292969 219.980469 52.789062 217.304688 50.117188 C 214.632812 47.445312 213.132812 43.816406 213.132812 40.039062 C 213.132812 36.257812 214.632812 32.632812 217.304688 29.960938 C 219.980469 27.285156 223.605469 25.785156 227.382812 25.785156 C 231.164062 25.785156 234.789062 27.285156 237.460938 29.960938 C 240.132812 32.632812 241.632812 36.257812 241.632812 40.039062 Z M 241.632812 40.039062 "/>
<g clip-path="url(#clip8)" clip-rule="nonzero">
<path style="fill:none;stroke-width:3.75;stroke-linecap:butt;stroke-linejoin:miter;stroke:rgb(0%,0%,0%);stroke-opacity:1;stroke-miterlimit:4;" d="M 241.632812 40.039062 C 241.632812 43.816406 240.132812 47.445312 237.460938 50.117188 C 234.789062 52.789062 231.164062 54.292969 227.382812 54.292969 C 223.605469 54.292969 219.980469 52.789062 217.304688 50.117188 C 214.632812 47.445312 213.132812 43.816406 213.132812 40.039062 C 213.132812 36.257812 214.632812 32.632812 217.304688 29.960938 C 219.980469 27.285156 223.605469 25.785156 227.382812 25.785156 C 231.164062 25.785156 234.789062 27.285156 237.460938 29.960938 C 240.132812 32.632812 241.632812 36.257812 241.632812 40.039062 Z M 241.632812 40.039062 "/>
</g>
<path style="fill:none;stroke-width:3.75;stroke-linecap:butt;stroke-linejoin:round;stroke:rgb(0%,0%,0%);stroke-opacity:1;stroke-miterlimit:4;" d="M 307.632812 40.039062 L 337.460938 40.089844 M 181.335938 40.039062 L 213.640625 39.753906 M 241.957031 40.9375 L 307.921875 40.039062 "/>
<path style=" stroke:none;fill-rule:evenodd;fill:rgb(100%,100%,100%);fill-opacity:1;" d="M 307.632812 40.039062 C 307.632812 47.910156 301.253906 54.289062 293.382812 54.289062 C 285.511719 54.289062 279.132812 47.910156 279.132812 40.039062 C 279.132812 32.167969 285.511719 25.789062 293.382812 25.789062 C 301.253906 25.789062 307.632812 32.167969 307.632812 40.039062 Z M 307.632812 40.039062 "/>
<g clip-path="url(#clip9)" clip-rule="nonzero">
<path style="fill:none;stroke-width:3.75;stroke-linecap:butt;stroke-linejoin:miter;stroke:rgb(0%,0%,0%);stroke-opacity:1;stroke-miterlimit:4;" d="M 307.632812 40.039062 C 307.632812 47.910156 301.253906 54.289062 293.382812 54.289062 C 285.511719 54.289062 279.132812 47.910156 279.132812 40.039062 C 279.132812 32.167969 285.511719 25.789062 293.382812 25.789062 C 301.253906 25.789062 307.632812 32.167969 307.632812 40.039062 Z M 307.632812 40.039062 "/>
</g>
<path style=" stroke:none;fill-rule:evenodd;fill:rgb(100%,100%,100%);fill-opacity:1;" d="M 422.953125 40.039062 C 422.953125 43.816406 421.453125 47.445312 418.78125 50.117188 C 416.109375 52.789062 412.484375 54.292969 408.703125 54.292969 C 404.921875 54.292969 401.296875 52.789062 398.625 50.117188 C 395.953125 47.445312 394.453125 43.816406 394.453125 40.039062 C 394.453125 36.257812 395.953125 32.632812 398.625 29.960938 C 401.296875 27.285156 404.921875 25.785156 408.703125 25.785156 C 412.484375 25.785156 416.109375 27.285156 418.78125 29.960938 C 421.453125 32.632812 422.953125 36.257812 422.953125 40.039062 Z M 422.953125 40.039062 "/>
<g clip-path="url(#clip10)" clip-rule="nonzero">
<path style="fill:none;stroke-width:3.75;stroke-linecap:butt;stroke-linejoin:miter;stroke:rgb(0%,0%,0%);stroke-opacity:1;stroke-miterlimit:4;" d="M 422.953125 40.039062 C 422.953125 43.816406 421.453125 47.445312 418.78125 50.117188 C 416.109375 52.789062 412.484375 54.292969 408.703125 54.292969 C 404.921875 54.292969 401.296875 52.789062 398.625 50.117188 C 395.953125 47.445312 394.453125 43.816406 394.453125 40.039062 C 394.453125 36.257812 395.953125 32.632812 398.625 29.960938 C 401.296875 27.285156 404.921875 25.785156 408.703125 25.785156 C 412.484375 25.785156 416.109375 27.285156 418.78125 29.960938 C 421.453125 32.632812 422.953125 36.257812 422.953125 40.039062 Z M 422.953125 40.039062 "/>
</g>
<path style="fill:none;stroke-width:3.75;stroke-linecap:butt;stroke-linejoin:round;stroke:rgb(0%,0%,0%);stroke-opacity:1;stroke-miterlimit:4;" d="M 488.953125 40.039062 L 518.78125 40.089844 M 362.65625 40.039062 L 394.960938 39.753906 M 423.277344 40.9375 L 489.242188 40.039062 "/>
<path style=" stroke:none;fill-rule:evenodd;fill:rgb(100%,100%,100%);fill-opacity:1;" d="M 488.953125 40.039062 C 488.953125 47.910156 482.574219 54.289062 474.703125 54.289062 C 466.832031 54.289062 460.453125 47.910156 460.453125 40.039062 C 460.453125 32.167969 466.832031 25.789062 474.703125 25.789062 C 482.574219 25.789062 488.953125 32.167969 488.953125 40.039062 Z M 488.953125 40.039062 "/>
<g clip-path="url(#clip11)" clip-rule="nonzero">
<path style="fill:none;stroke-width:3.75;stroke-linecap:butt;stroke-linejoin:miter;stroke:rgb(0%,0%,0%);stroke-opacity:1;stroke-miterlimit:4;" d="M 488.953125 40.039062 C 488.953125 47.910156 482.574219 54.289062 474.703125 54.289062 C 466.832031 54.289062 460.453125 47.910156 460.453125 40.039062 C 460.453125 32.167969 466.832031 25.789062 474.703125 25.789062 C 482.574219 25.789062 488.953125 32.167969 488.953125 40.039062 Z M 488.953125 40.039062 "/>
</g>
<path style=" stroke:none;fill-rule:evenodd;fill:rgb(0%,0%,0%);fill-opacity:1;" d="M 733.058594 28.980469 C 733.058594 26.890625 731.316406 25.152344 729.226562 25.152344 C 727.019531 25.152344 725.277344 26.890625 725.277344 28.980469 C 725.277344 31.183594 727.019531 32.921875 729.226562 32.921875 C 731.316406 32.921875 733.058594 31.183594 733.058594 28.980469 Z M 733.058594 28.980469 "/>
<path style=" stroke:none;fill-rule:evenodd;fill:rgb(0%,0%,0%);fill-opacity:1;" d="M 765.992188 28.980469 C 765.992188 26.890625 764.25 25.152344 762.160156 25.152344 C 759.953125 25.152344 758.210938 26.890625 758.210938 28.980469 C 758.210938 31.183594 759.953125 32.921875 762.160156 32.921875 C 764.25 32.921875 765.992188 31.183594 765.992188 28.980469 Z M 765.992188 28.980469 "/>
<path style=" stroke:none;fill-rule:evenodd;fill:rgb(0%,0%,0%);fill-opacity:1;" d="M 798.855469 28.980469 C 798.855469 26.890625 797.113281 25.152344 795.023438 25.152344 C 792.816406 25.152344 791.074219 26.890625 791.074219 28.980469 C 791.074219 31.183594 792.816406 32.921875 795.023438 32.921875 C 797.113281 32.921875 798.855469 31.183594 798.855469 28.980469 Z M 798.855469 28.980469 "/>
</g>
</svg>
