<?xml version="1.0" encoding="UTF-8"?>
<svg xmlns="http://www.w3.org/2000/svg" xmlns:xlink="http://www.w3.org/1999/xlink" width="980.176208pt" height="58.074253pt" viewBox="0 0 980.176208 58.074253" version="1.1">
<defs>
<clipPath id="clip1">
  <path d="M 191 6 L 263 6 L 263 58.074219 L 191 58.074219 Z M 191 6 "/>
</clipPath>
<clipPath id="clip2">
  <path d="M 257 6 L 329 6 L 329 58.074219 L 257 58.074219 Z M 257 6 "/>
</clipPath>
<clipPath id="clip3">
  <path d="M 10 6 L 82 6 L 82 58.074219 L 10 58.074219 Z M 10 6 "/>
</clipPath>
<clipPath id="clip4">
  <path d="M 76 6 L 148 6 L 148 58.074219 L 76 58.074219 Z M 76 6 "/>
</clipPath>
<clipPath id="clip5">
  <path d="M 551 6 L 623 6 L 623 58.074219 L 551 58.074219 Z M 551 6 "/>
</clipPath>
<clipPath id="clip6">
  <path d="M 617 6 L 689 6 L 689 58.074219 L 617 58.074219 Z M 617 6 "/>
</clipPath>
<clipPath id="clip7">
  <path d="M 834 6 L 906 6 L 906 58.074219 L 834 58.074219 Z M 834 6 "/>
</clipPath>
<clipPath id="clip8">
  <path d="M 822 0 L 980.175781 0 L 980.175781 47 L 822 47 Z M 822 0 "/>
</clipPath>
<clipPath id="clip9">
  <path d="M 900 6 L 972 6 L 972 58.074219 L 900 58.074219 Z M 900 6 "/>
</clipPath>
<clipPath id="clip10">
  <path d="M 370 6 L 442 6 L 442 58.074219 L 370 58.074219 Z M 370 6 "/>
</clipPath>
<clipPath id="clip11">
  <path d="M 436 6 L 508 6 L 508 58.074219 L 436 58.074219 Z M 436 6 "/>
</clipPath>
</defs>
<g id="surface1">
<path style=" stroke:none;fill-rule:evenodd;fill:rgb(100%,100%,100%);fill-opacity:1;" d="M 240.816406 41.949219 C 240.816406 49.820312 234.4375 56.199219 226.566406 56.199219 C 218.699219 56.199219 212.316406 49.820312 212.316406 41.949219 C 212.316406 34.078125 218.699219 27.699219 226.566406 27.699219 C 234.4375 27.699219 240.816406 34.078125 240.816406 41.949219 Z M 240.816406 41.949219 "/>
<g clip-path="url(#clip1)" clip-rule="nonzero">
<path style="fill:none;stroke-width:3.75;stroke-linecap:butt;stroke-linejoin:miter;stroke:rgb(0%,0%,0%);stroke-opacity:1;stroke-miterlimit:4;" d="M 240.816406 41.949219 C 240.816406 49.820312 234.4375 56.199219 226.566406 56.199219 C 218.699219 56.199219 212.316406 49.820312 212.316406 41.949219 C 212.316406 34.078125 218.699219 27.699219 226.566406 27.699219 C 234.4375 27.699219 240.816406 34.078125 240.816406 41.949219 Z M 240.816406 41.949219 "/>
</g>
<path style="fill:none;stroke-width:3.75;stroke-linecap:butt;stroke-linejoin:round;stroke:rgb(0%,0%,0%);stroke-opacity:1;stroke-miterlimit:4;" d="M 306.816406 41.949219 L 336.644531 42 M 180.519531 41.949219 L 212.824219 41.664062 M 229.785156 1.578125 L 296.316406 44.199219 "/>
<path style=" stroke:none;fill-rule:evenodd;fill:rgb(100%,100%,100%);fill-opacity:1;" d="M 306.816406 41.949219 C 306.816406 49.820312 300.4375 56.199219 292.566406 56.199219 C 284.699219 56.199219 278.316406 49.820312 278.316406 41.949219 C 278.316406 34.078125 284.699219 27.699219 292.566406 27.699219 C 300.4375 27.699219 306.816406 34.078125 306.816406 41.949219 Z M 306.816406 41.949219 "/>
<g clip-path="url(#clip2)" clip-rule="nonzero">
<path style="fill:none;stroke-width:3.75;stroke-linecap:butt;stroke-linejoin:miter;stroke:rgb(0%,0%,0%);stroke-opacity:1;stroke-miterlimit:4;" d="M 306.816406 41.949219 C 306.816406 49.820312 300.4375 56.199219 292.566406 56.199219 C 284.699219 56.199219 278.316406 49.820312 278.316406 41.949219 C 278.316406 34.078125 284.699219 27.699219 292.566406 27.699219 C 300.4375 27.699219 306.816406 34.078125 306.816406 41.949219 Z M 306.816406 41.949219 "/>
</g>
<path style=" stroke:none;fill-rule:evenodd;fill:rgb(100%,100%,100%);fill-opacity:1;" d="M 60.3125 41.949219 C 60.3125 49.820312 53.933594 56.199219 46.0625 56.199219 C 38.195312 56.199219 31.8125 49.820312 31.8125 41.949219 C 31.8125 34.078125 38.195312 27.699219 46.0625 27.699219 C 53.933594 27.699219 60.3125 34.078125 60.3125 41.949219 Z M 60.3125 41.949219 "/>
<g clip-path="url(#clip3)" clip-rule="nonzero">
<path style="fill:none;stroke-width:3.75;stroke-linecap:butt;stroke-linejoin:miter;stroke:rgb(0%,0%,0%);stroke-opacity:1;stroke-miterlimit:4;" d="M 60.3125 41.949219 C 60.3125 49.820312 53.933594 56.199219 46.0625 56.199219 C 38.195312 56.199219 31.8125 49.820312 31.8125 41.949219 C 31.8125 34.078125 38.195312 27.699219 46.0625 27.699219 C 53.933594 27.699219 60.3125 34.078125 60.3125 41.949219 Z M 60.3125 41.949219 "/>
</g>
<path style="fill:none;stroke-width:3.75;stroke-linecap:butt;stroke-linejoin:round;stroke:rgb(0%,0%,0%);stroke-opacity:1;stroke-miterlimit:4;" d="M 126.3125 41.949219 L 156.140625 42 M 0.015625 41.949219 L 32.320312 41.664062 M 49.28125 1.578125 L 115.8125 44.199219 "/>
<path style=" stroke:none;fill-rule:evenodd;fill:rgb(100%,100%,100%);fill-opacity:1;" d="M 126.3125 41.949219 C 126.3125 49.820312 119.933594 56.199219 112.0625 56.199219 C 104.195312 56.199219 97.8125 49.820312 97.8125 41.949219 C 97.8125 34.078125 104.195312 27.699219 112.0625 27.699219 C 119.933594 27.699219 126.3125 34.078125 126.3125 41.949219 Z M 126.3125 41.949219 "/>
<g clip-path="url(#clip4)" clip-rule="nonzero">
<path style="fill:none;stroke-width:3.75;stroke-linecap:butt;stroke-linejoin:miter;stroke:rgb(0%,0%,0%);stroke-opacity:1;stroke-miterlimit:4;" d="M 126.3125 41.949219 C 126.3125 49.820312 119.933594 56.199219 112.0625 56.199219 C 104.195312 56.199219 97.8125 49.820312 97.8125 41.949219 C 97.8125 34.078125 104.195312 27.699219 112.0625 27.699219 C 119.933594 27.699219 126.3125 34.078125 126.3125 41.949219 Z M 126.3125 41.949219 "/>
</g>
<path style=" stroke:none;fill-rule:evenodd;fill:rgb(100%,100%,100%);fill-opacity:1;" d="M 601.449219 41.949219 C 601.449219 49.820312 595.070312 56.199219 587.199219 56.199219 C 579.332031 56.199219 572.949219 49.820312 572.949219 41.949219 C 572.949219 34.078125 579.332031 27.699219 587.199219 27.699219 C 595.070312 27.699219 601.449219 34.078125 601.449219 41.949219 Z M 601.449219 41.949219 "/>
<g clip-path="url(#clip5)" clip-rule="nonzero">
<path style="fill:none;stroke-width:3.75;stroke-linecap:butt;stroke-linejoin:miter;stroke:rgb(0%,0%,0%);stroke-opacity:1;stroke-miterlimit:4;" d="M 601.449219 41.949219 C 601.449219 49.820312 595.070312 56.199219 587.199219 56.199219 C 579.332031 56.199219 572.949219 49.820312 572.949219 41.949219 C 572.949219 34.078125 579.332031 27.699219 587.199219 27.699219 C 595.070312 27.699219 601.449219 34.078125 601.449219 41.949219 Z M 601.449219 41.949219 "/>
</g>
<path style="fill:none;stroke-width:3.75;stroke-linecap:butt;stroke-linejoin:round;stroke:rgb(0%,0%,0%);stroke-opacity:1;stroke-miterlimit:4;" d="M 667.449219 41.949219 L 697.277344 42 M 541.152344 41.949219 L 573.457031 41.664062 M 590.417969 1.578125 L 656.949219 44.199219 "/>
<path style=" stroke:none;fill-rule:evenodd;fill:rgb(100%,100%,100%);fill-opacity:1;" d="M 667.449219 41.949219 C 667.449219 49.820312 661.070312 56.199219 653.199219 56.199219 C 645.332031 56.199219 638.949219 49.820312 638.949219 41.949219 C 638.949219 34.078125 645.332031 27.699219 653.199219 27.699219 C 661.070312 27.699219 667.449219 34.078125 667.449219 41.949219 Z M 667.449219 41.949219 "/>
<g clip-path="url(#clip6)" clip-rule="nonzero">
<path style="fill:none;stroke-width:3.75;stroke-linecap:butt;stroke-linejoin:miter;stroke:rgb(0%,0%,0%);stroke-opacity:1;stroke-miterlimit:4;" d="M 667.449219 41.949219 C 667.449219 49.820312 661.070312 56.199219 653.199219 56.199219 C 645.332031 56.199219 638.949219 49.820312 638.949219 41.949219 C 638.949219 34.078125 645.332031 27.699219 653.199219 27.699219 C 661.070312 27.699219 667.449219 34.078125 667.449219 41.949219 Z M 667.449219 41.949219 "/>
</g>
<path style=" stroke:none;fill-rule:evenodd;fill:rgb(100%,100%,100%);fill-opacity:1;" d="M 884.347656 41.949219 C 884.347656 49.820312 877.964844 56.199219 870.097656 56.199219 C 862.226562 56.199219 855.847656 49.820312 855.847656 41.949219 C 855.847656 34.078125 862.226562 27.699219 870.097656 27.699219 C 877.964844 27.699219 884.347656 34.078125 884.347656 41.949219 Z M 884.347656 41.949219 "/>
<g clip-path="url(#clip7)" clip-rule="nonzero">
<path style="fill:none;stroke-width:3.75;stroke-linecap:butt;stroke-linejoin:miter;stroke:rgb(0%,0%,0%);stroke-opacity:1;stroke-miterlimit:4;" d="M 884.347656 41.949219 C 884.347656 49.820312 877.964844 56.199219 870.097656 56.199219 C 862.226562 56.199219 855.847656 49.820312 855.847656 41.949219 C 855.847656 34.078125 862.226562 27.699219 870.097656 27.699219 C 877.964844 27.699219 884.347656 34.078125 884.347656 41.949219 Z M 884.347656 41.949219 "/>
</g>
<g clip-path="url(#clip8)" clip-rule="nonzero">
<path style="fill:none;stroke-width:3.75;stroke-linecap:butt;stroke-linejoin:round;stroke:rgb(0%,0%,0%);stroke-opacity:1;stroke-miterlimit:4;" d="M 950.347656 41.949219 L 980.171875 42 M 824.046875 41.949219 L 856.351562 41.664062 M 873.316406 1.578125 L 939.847656 44.199219 "/>
</g>
<path style=" stroke:none;fill-rule:evenodd;fill:rgb(100%,100%,100%);fill-opacity:1;" d="M 950.347656 41.949219 C 950.347656 49.820312 943.964844 56.199219 936.097656 56.199219 C 928.226562 56.199219 921.847656 49.820312 921.847656 41.949219 C 921.847656 34.078125 928.226562 27.699219 936.097656 27.699219 C 943.964844 27.699219 950.347656 34.078125 950.347656 41.949219 Z M 950.347656 41.949219 "/>
<g clip-path="url(#clip9)" clip-rule="nonzero">
<path style="fill:none;stroke-width:3.75;stroke-linecap:butt;stroke-linejoin:miter;stroke:rgb(0%,0%,0%);stroke-opacity:1;stroke-miterlimit:4;" d="M 950.347656 41.949219 C 950.347656 49.820312 943.964844 56.199219 936.097656 56.199219 C 928.226562 56.199219 921.847656 49.820312 921.847656 41.949219 C 921.847656 34.078125 928.226562 27.699219 936.097656 27.699219 C 943.964844 27.699219 950.347656 34.078125 950.347656 41.949219 Z M 950.347656 41.949219 "/>
</g>
<path style=" stroke:none;fill-rule:evenodd;fill:rgb(100%,100%,100%);fill-opacity:1;" d="M 420.324219 41.949219 C 420.324219 49.820312 413.941406 56.199219 406.074219 56.199219 C 398.203125 56.199219 391.824219 49.820312 391.824219 41.949219 C 391.824219 34.078125 398.203125 27.699219 406.074219 27.699219 C 413.941406 27.699219 420.324219 34.078125 420.324219 41.949219 Z M 420.324219 41.949219 "/>
<g clip-path="url(#clip10)" clip-rule="nonzero">
<path style="fill:none;stroke-width:3.75;stroke-linecap:butt;stroke-linejoin:miter;stroke:rgb(0%,0%,0%);stroke-opacity:1;stroke-miterlimit:4;" d="M 420.324219 41.949219 C 420.324219 49.820312 413.941406 56.199219 406.074219 56.199219 C 398.203125 56.199219 391.824219 49.820312 391.824219 41.949219 C 391.824219 34.078125 398.203125 27.699219 406.074219 27.699219 C 413.941406 27.699219 420.324219 34.078125 420.324219 41.949219 Z M 420.324219 41.949219 "/>
</g>
<path style="fill:none;stroke-width:3.75;stroke-linecap:butt;stroke-linejoin:round;stroke:rgb(0%,0%,0%);stroke-opacity:1;stroke-miterlimit:4;" d="M 486.324219 41.949219 L 516.152344 42 M 360.027344 41.949219 L 392.328125 41.664062 M 409.292969 1.578125 L 475.824219 44.199219 "/>
<path style=" stroke:none;fill-rule:evenodd;fill:rgb(100%,100%,100%);fill-opacity:1;" d="M 486.324219 41.949219 C 486.324219 49.820312 479.941406 56.199219 472.074219 56.199219 C 464.203125 56.199219 457.824219 49.820312 457.824219 41.949219 C 457.824219 34.078125 464.203125 27.699219 472.074219 27.699219 C 479.941406 27.699219 486.324219 34.078125 486.324219 41.949219 Z M 486.324219 41.949219 "/>
<g clip-path="url(#clip11)" clip-rule="nonzero">
<path style="fill:none;stroke-width:3.75;stroke-linecap:butt;stroke-linejoin:miter;stroke:rgb(0%,0%,0%);stroke-opacity:1;stroke-miterlimit:4;" d="M 486.324219 41.949219 C 486.324219 49.820312 479.941406 56.199219 472.074219 56.199219 C 464.203125 56.199219 457.824219 49.820312 457.824219 41.949219 C 457.824219 34.078125 464.203125 27.699219 472.074219 27.699219 C 479.941406 27.699219 486.324219 34.078125 486.324219 41.949219 Z M 486.324219 41.949219 "/>
</g>
<path style=" stroke:none;fill-rule:evenodd;fill:rgb(0%,0%,0%);fill-opacity:1;" d="M 725.363281 28.980469 C 725.363281 26.890625 723.621094 25.152344 721.53125 25.152344 C 719.324219 25.152344 717.585938 26.890625 717.585938 28.980469 C 717.585938 31.183594 719.324219 32.921875 721.53125 32.921875 C 723.621094 32.921875 725.363281 31.183594 725.363281 28.980469 Z M 725.363281 28.980469 "/>
<path style=" stroke:none;fill-rule:evenodd;fill:rgb(0%,0%,0%);fill-opacity:1;" d="M 758.296875 28.980469 C 758.296875 26.890625 756.554688 25.152344 754.464844 25.152344 C 752.257812 25.152344 750.515625 26.890625 750.515625 28.980469 C 750.515625 31.183594 752.257812 32.921875 754.464844 32.921875 C 756.554688 32.921875 758.296875 31.183594 758.296875 28.980469 Z M 758.296875 28.980469 "/>
<path style=" stroke:none;fill-rule:evenodd;fill:rgb(0%,0%,0%);fill-opacity:1;" d="M 791.160156 28.980469 C 791.160156 26.890625 789.421875 25.152344 787.328125 25.152344 C 785.125 25.152344 783.382812 26.890625 783.382812 28.980469 C 783.382812 31.183594 785.125 32.921875 787.328125 32.921875 C 789.421875 32.921875 791.160156 31.183594 791.160156 28.980469 Z M 791.160156 28.980469 "/>
</g>
</svg>
